<svg width="93" height="94" viewBox="0 0 93 94" fill="none" xmlns="http://www.w3.org/2000/svg">
<path d="M89.148 47.0014C89.148 70.8108 70.0529 90.1121 46.4978 90.1121C22.9428 90.1121 3.84766 70.8108 3.84766 47.0014C3.84766 23.192 22.9428 3.89062 46.4978 3.89062C70.0529 3.89062 89.148 23.192 89.148 47.0014ZM8.11267 47.0014C8.11267 68.4298 25.2983 85.801 46.4978 85.801C67.6974 85.801 84.883 68.4298 84.883 47.0014C84.883 25.5729 67.6974 8.2017 46.4978 8.2017C25.2983 8.2017 8.11267 25.5729 8.11267 47.0014Z" fill="#E6ECF5"/>
<rect x="44.5" y="33" width="4" height="29" rx="2" fill="#175BCF"/>
<rect x="32" y="49.5" width="4" height="29" rx="2" transform="rotate(-90 32 49.5)" fill="#175BCF"/>
</svg>
