<svg width="94" height="94" viewBox="0 0 94 94" fill="none" xmlns="http://www.w3.org/2000/svg">
<path d="M25 62.5C25 55.0442 31.0442 49 38.5 49H79V76H38.5C31.0442 76 25 69.9558 25 62.5Z" fill="#E6ECF5"/>
<path d="M76.75 40.6201V76.375C76.75 78.7122 75.8215 80.9537 74.1689 82.6064C72.5162 84.259 70.2747 85.1875 67.9375 85.1875H26.8125C24.4753 85.1875 22.2338 84.259 20.5811 82.6064C18.9285 80.9537 18 78.7122 18 76.375V17.625C18 15.2878 18.9285 13.0463 20.5811 11.3936C22.2338 9.74096 24.4753 8.8125 26.8125 8.8125H44.9424C46.5 8.81274 47.9938 9.4315 49.0953 10.5328L75.0297 36.4672C76.131 37.5687 76.7498 39.0625 76.75 40.6201Z" stroke="#175BCF" stroke-width="4" stroke-linejoin="round"/>
<path d="M47 10.2812V32.3125C47 33.8706 47.619 35.365 48.7207 36.4668C49.8225 37.5685 51.3169 38.1875 52.875 38.1875H74.9062" stroke="#175BCF" stroke-width="4" stroke-linecap="round" stroke-linejoin="round"/>
<path d="M44.247 60.5071C44.247 61.3181 44.0508 62.0627 43.6584 62.7407C43.266 63.4055 42.6633 63.944 41.8505 64.3561C41.0376 64.7683 40.0285 64.9744 38.8232 64.9744H36.5949V70H33V56H38.8232C40.0005 56 40.9956 56.1928 41.8084 56.5783C42.6213 56.9639 43.231 57.4957 43.6374 58.1738C44.0438 58.8519 44.247 59.6296 44.247 60.5071ZM38.5499 62.2621C39.2367 62.2621 39.7482 62.1092 40.0846 61.8034C40.4209 61.4976 40.5891 61.0655 40.5891 60.5071C40.5891 59.9487 40.4209 59.5166 40.0846 59.2108C39.7482 58.905 39.2367 58.7521 38.5499 58.7521H36.5949V62.2621H38.5499Z" fill="#175BCF"/>
<path d="M51.6475 56C53.2031 56 54.5626 56.2925 55.7258 56.8775C56.8891 57.4625 57.786 58.2868 58.4167 59.3504C59.0614 60.4008 59.3837 61.6173 59.3837 63C59.3837 64.3694 59.0614 65.5859 58.4167 66.6496C57.786 67.7132 56.8821 68.5375 55.7048 69.1225C54.5416 69.7075 53.1891 70 51.6475 70H46.1185V56H51.6475ZM51.4162 67.0484C52.7757 67.0484 53.8338 66.6961 54.5906 65.9915C55.3474 65.2868 55.7258 64.2896 55.7258 63C55.7258 61.7104 55.3474 60.7066 54.5906 59.9886C53.8338 59.2707 52.7757 58.9117 51.4162 58.9117H49.7134V67.0484H51.4162Z" fill="#175BCF"/>
<path d="M71 56V58.7322H64.9876V61.6838H69.4864V64.3362H64.9876V70H61.3927V56H71Z" fill="#175BCF"/>
</svg>
