<svg width="91" height="92" viewBox="0 0 91 92" fill="none" xmlns="http://www.w3.org/2000/svg">
  <path
    d="M86.6873 45.7232C86.6873 68.7274 68.2379 87.3761 45.4794 87.3761C22.7209 87.3761 4.27148 68.7274 4.27148 45.7232C4.27148 22.7189 22.7209 4.07031 45.4794 4.07031C68.2379 4.07031 86.6873 22.7189 86.6873 45.7232ZM8.39227 45.7232C8.39227 66.427 24.9967 83.2108 45.4794 83.2108C65.962 83.2108 82.5665 66.427 82.5665 45.7232C82.5665 25.0194 65.962 8.2356 45.4794 8.2356C24.9967 8.2356 8.39227 25.0194 8.39227 45.7232Z"
    fill="#E6ECF5"
  />
  <path
    fill-rule="evenodd"
    clip-rule="evenodd"
    d="M90.4098 45.7242C90.4098 70.8019 70.2969 91.1349 45.4822 91.1349C20.6675 91.1349 0.554688 70.8019 0.554688 45.7242C0.554688 20.6466 20.6675 0.313599 45.4822 0.313599C70.2969 0.313599 90.4098 20.6466 90.4098 45.7242ZM12.1147 45.7242C12.1147 64.3546 27.0558 79.4541 45.4822 79.4541C63.9087 79.4541 78.8497 64.3546 78.8497 45.7242C78.8497 27.0938 63.9087 11.9944 45.4822 11.9944C27.0558 11.9944 12.1147 27.0938 12.1147 45.7242ZM45.4822 87.3771C68.2407 87.3771 86.6901 68.7285 86.6901 45.7242C86.6901 22.72 68.2407 4.07134 45.4822 4.07134C22.7237 4.07134 4.27432 22.72 4.27432 45.7242C4.27432 68.7285 22.7237 87.3771 45.4822 87.3771ZM45.4822 83.2118C24.9996 83.2118 8.39511 66.4281 8.39511 45.7242C8.39511 25.0204 24.9996 8.23663 45.4822 8.23663C65.9649 8.23663 82.5693 25.0204 82.5693 45.7242C82.5693 66.4281 65.9649 83.2118 45.4822 83.2118Z"
    fill="#E6ECF5"
  />
  <path
    fill-rule="evenodd"
    clip-rule="evenodd"
    d="M44.1653 32.7444C44.893 32.0149 46.0728 32.0149 46.8005 32.7444L57.9806 43.9521C58.7083 44.6816 58.7083 45.8643 57.9806 46.5938C57.253 47.3233 56.0732 47.3233 55.3455 46.5938L47.3463 38.5749V58.3486C47.3463 59.3803 46.512 60.2166 45.4829 60.2166C44.4538 60.2166 43.6196 59.3803 43.6196 58.3486V38.5749L35.6204 46.5938C34.8927 47.3233 33.7129 47.3233 32.9852 46.5938C32.2575 45.8643 32.2575 44.6816 32.9852 43.9521L44.1653 32.7444Z"
    fill="#175BCF"
  />
</svg>
