<svg xmlns="http://www.w3.org/2000/svg" width="64" height="64" fill="none" viewBox="0 0 64 64">
    <g stroke="#175BCF" clip-path="url(#clip0)">
        <circle cx="32" cy="32" r="30" stroke-width="4"/>
        <path fill="#175BCF" fill-rule="evenodd" stroke-linecap="round" stroke-miterlimit="10" stroke-width=".5" d="M35.034 20.61c-.488-.238-1.535-.473-2.872-.457-1.417.02-2.817.333-3.94 1.259m6.812-.803c1.26.618 3.096 1.832 3.096 4.272 0 2.684-1.553 3.889-4.23 5.73-1.452.998-2.473 2.062-3.116 3.258-.65 1.207-.85 2.427-.85 3.621 0 .87.706 1.576 1.577 1.576.87 0 1.576-.706 1.576-1.576 0-.827.134-1.498.473-2.127.344-.64.964-1.356 2.126-2.155l.06-.042c2.54-1.745 5.537-3.806 5.537-8.285 0-4.398-3.428-6.4-4.864-7.103h-.002l-.001-.001c-1.09-.532-2.68-.796-4.294-.776h-.002c-1.815.025-4.022.428-5.903 1.978-1.514 1.248-2.319 2.665-2.742 3.784-.21.557-.328 1.041-.392 1.398-.033.179-.052.326-.064.437l-.013.137-.003.047v.017l-.001.007v.005s0 .002 1.574.07l-1.575-.068c-.037.87.637 1.605 1.506 1.643.864.038 1.596-.628 1.643-1.49l.003-.033c.004-.04.013-.111.031-.21.036-.195.105-.491.24-.845.265-.702.782-1.628 1.798-2.466" clip-rule="evenodd"/>
        <path fill="#175BCF" stroke-width=".5" d="M33.783 43.478c0 1.255-1.017 2.272-2.272 2.272s-2.272-1.017-2.272-2.272c0-1.254 1.017-2.272 2.272-2.272s2.272 1.018 2.272 2.272z"/>
    </g>
    <defs>
        <clipPath id="clip0">
            <path fill="#fff" d="M0 0H64V64H0z"/>
        </clipPath>
    </defs>
</svg>
