<svg xmlns="http://www.w3.org/2000/svg" width="64" height="64" fill="none" viewBox="0 0 64 64">
    <circle cx="32" cy="32" r="30" stroke="#FBB02D" stroke-width="4"/>
    <path fill="#FBB02D" stroke="#FBB02D" stroke-linecap="round" stroke-linejoin="round" stroke-width=".5" d="M32.42 16.75c-1.356 0-2.758 1.128-2.666 2.738l.603 16.276c.01.534.225 1.045.604 1.424.387.386.911.604 1.458.604.547 0 1.072-.218 1.459-.604.378-.379.594-.89.603-1.424l.603-16.276c.092-1.61-1.31-2.738-2.665-2.738zM32.417 40.918c-1.473 0-2.667 1.194-2.667 2.667 0 1.472 1.194 2.666 2.667 2.666 1.472 0 2.666-1.194 2.666-2.666 0-1.473-1.194-2.667-2.666-2.667z"/>
</svg>
