<svg xmlns="http://www.w3.org/2000/svg" width="64" height="64" fill="none" viewBox="0 0 64 64">
    <path stroke="#00A69B" stroke-miterlimit="10" stroke-width="4" d="M62 32C62 15.437 48.562 2 32 2 15.437 2 2 15.438 2 32c0 16.563 13.438 30 30 30 16.563 0 30-13.438 30-30z"/>
    <path fill="#00A69B" fill-rule="evenodd" d="M45.425 23.684c.812.862.757 2.206-.122 3.002L31.22 39.436c-.808.731-2.046.754-2.88.052l-7.583-6.375c-.909-.763-1.014-2.105-.235-2.996.778-.891 2.146-.994 3.055-.23l6.12 5.144 12.667-11.467c.879-.797 2.25-.743 3.061.12z" clip-rule="evenodd"/>
</svg>
