<svg xmlns="http://www.w3.org/2000/svg" width="74" height="65" fill="none" viewBox="0 0 74 65">
    <g stroke="#E85658" clip-path="url(#clip0)">
        <path stroke-width="4" d="M33.535 4c1.54-2.667 5.39-2.667 6.929 0l30.224 52.35c1.54 2.667-.385 6-3.464 6H6.775c-3.079 0-5.003-3.333-3.464-6L33.535 4z"/>
        <path fill="#E85658" stroke-linecap="round" stroke-linejoin="round" stroke-width=".5" d="M37.409 22.125c-1.324 0-2.695 1.102-2.605 2.676l.588 15.87c.009.522.22 1.021.59 1.391.379.379.892.591 1.427.591s1.048-.212 1.426-.59c.37-.37.582-.87.59-1.393l.588-15.869c.09-1.574-1.28-2.676-2.604-2.676zM37.408 45.689c-1.44 0-2.606 1.167-2.606 2.606 0 1.44 1.167 2.606 2.606 2.606 1.44 0 2.606-1.167 2.606-2.606 0-1.44-1.167-2.606-2.606-2.606z"/>
    </g>
    <defs>
        <clipPath id="clip0">
            <path fill="#fff" d="M0 0H74V65H0z"/>
        </clipPath>
    </defs>
</svg>
