<svg xmlns="http://www.w3.org/2000/svg" width="64" height="64" fill="none" viewBox="0 0 64 64">
    <path stroke="#FBB02D" stroke-miterlimit="10" stroke-width="4" d="M62 32C62 15.437 48.562 2 32 2 15.437 2 2 15.438 2 32c0 16.563 13.438 30 30 30 16.563 0 30-13.438 30-30z"/>
    <path fill="#FBB02D" d="M41.411 45.997c-.217 0-.43-.067-.606-.194l-8.307-6.035-8.306 6.035c-.178.129-.392.198-.61.197-.22 0-.433-.072-.61-.202-.176-.13-.307-.313-.373-.523-.066-.21-.063-.434.007-.642l3.24-9.616-8.397-5.77c-.182-.125-.319-.305-.391-.514-.073-.208-.077-.435-.012-.646.065-.21.195-.396.373-.527.177-.131.391-.203.612-.203h10.358l3.126-9.64c.068-.209.2-.39.376-.519s.389-.198.607-.198c.219 0 .431.07.608.198.177.129.308.31.375.518l3.127 9.644h10.358c.22 0 .436.07.614.202.177.13.308.316.374.527.065.211.061.438-.011.647-.073.209-.21.389-.392.514l-8.4 5.767 3.238 9.613c.052.156.067.322.043.484-.024.163-.087.317-.182.45-.096.134-.221.243-.367.318-.146.075-.308.115-.472.115z"/>
</svg>
