<svg width="135" height="54" viewBox="0 0 135 54" fill="none" xmlns="http://www.w3.org/2000/svg">
  <g clip-path="url(#clip0)">
    <path
      fill-rule="evenodd"
      clip-rule="evenodd"
      d="M91.2145 12.0642H88.4738V24.643H91.2145V12.0642ZM88.6536 7.32853C88.3447 7.65154 88.1723 8.08253 88.1726 8.53085C88.168 8.978 88.3398 9.40872 88.6503 9.72855C88.9609 10.0484 89.3848 10.2312 89.8291 10.2369C90.2761 10.2335 90.7035 10.0521 91.0179 9.73237C91.3324 9.41268 91.5082 8.98069 91.5071 8.53085C91.5072 8.0789 91.3318 7.64479 91.0183 7.32118C90.7048 6.99758 90.278 6.81013 89.8291 6.79883C89.3839 6.81564 88.9626 7.00552 88.6536 7.32853ZM50.2449 8.17993H47.3278V24.6428H50.189V12.7741C50.189 12.7741 51.4755 15.0128 52.8566 16.97L58.3166 24.6342H61.2811V8.17993H58.4156V20.1526C58.4156 20.1526 57.1076 17.8576 55.9717 16.2555L50.2449 8.17993ZM70.3039 14.541C72.253 14.541 73.69 16.1691 73.69 18.3774C73.69 20.616 72.2315 22.1879 70.3039 22.1879C68.23 22.1879 66.7456 20.5857 66.7456 18.3774C66.7456 16.1691 68.23 14.541 70.3039 14.541ZM69.6112 11.8217C66.2508 11.8217 63.9575 14.7445 63.9575 18.3774C63.9575 21.9714 66.2594 24.8942 69.6112 24.8942C70.3832 24.9137 71.1499 24.7598 71.8555 24.4437C72.5611 24.1276 73.1878 23.6573 73.69 23.0669V24.643H76.4308V12.0772H73.69V13.6793C73.1897 13.0845 72.5641 12.6093 71.8586 12.288C71.1531 11.9667 70.3854 11.8074 69.6112 11.8217ZM79.9675 20.5985V14.3762H78.1647V12.064H79.9675V9.60018L82.7125 9.01562V12.0467H86.3913V14.3762H82.7125V20.6765C82.7125 22.0231 83.3278 22.4561 84.0033 22.4561C84.6478 22.4294 85.2708 22.2159 85.7975 21.8413L86.615 23.95C85.7522 24.5547 84.7277 24.8822 83.6763 24.8896C81.1808 24.8896 79.9675 23.4954 79.9675 20.5985ZM103.761 18.3773C103.761 17.3885 103.371 16.4402 102.676 15.7411C101.981 15.0419 101.039 14.6491 100.056 14.6491C99.0738 14.6491 98.1315 15.0419 97.4368 15.7411C96.7421 16.4402 96.3518 17.3885 96.3518 18.3773C96.3518 19.3661 96.7421 20.3144 97.4368 21.0135C98.1315 21.7127 99.0738 22.1055 100.056 22.1055C101.039 22.1055 101.981 21.7127 102.676 21.0135C103.371 20.3144 103.761 19.3661 103.761 18.3773ZM93.5637 18.3773C93.5414 17.5048 93.6928 16.6366 94.0092 15.824C94.3256 15.0113 94.8004 14.2706 95.4057 13.6456C96.011 13.0205 96.7345 12.5238 97.5336 12.1846C98.3327 11.8454 99.1912 11.6707 100.058 11.6707C100.926 11.6707 101.784 11.8454 102.583 12.1846C103.382 12.5238 104.106 13.0205 104.711 13.6456C105.317 14.2706 105.791 15.0113 106.108 15.824C106.424 16.6366 106.576 17.5048 106.553 18.3773C106.51 20.0817 105.806 21.7015 104.593 22.8915C103.38 24.0815 101.753 24.7475 100.058 24.7475C98.3643 24.7475 96.7372 24.0815 95.5239 22.8915C94.3107 21.7015 93.6073 20.0817 93.5637 18.3773ZM111.652 12.0641H108.911V24.6429H111.652V18.0612C111.652 15.9785 112.96 14.5279 114.763 14.5279C116.828 14.5279 117.258 15.723 117.258 17.7798V24.6429H119.999V17.4377C119.999 14.0733 118.915 11.8086 115.602 11.8086C114.823 11.7791 114.049 11.9535 113.357 12.3148C112.664 12.676 112.077 13.2118 111.652 13.8697V12.0641ZM56.9699 38.3736C56.9699 36.1653 55.4898 34.5372 53.4117 34.5372C51.4626 34.5372 50.0298 36.1653 50.0298 38.3736C50.0298 40.582 51.4884 42.1841 53.4117 42.1841C55.4898 42.1841 56.9699 40.5863 56.9699 38.3736ZM49.9094 43.0588V44.6306H47.2891V27.9338H50.0298V33.6755C50.5281 33.0782 51.1522 32.6 51.857 32.2757C52.5618 31.9513 53.3295 31.7891 54.1044 31.8006C57.4647 31.8006 59.7623 34.7234 59.7623 38.3563C59.7623 41.9892 57.4647 44.886 54.1044 44.886C53.3149 44.9088 52.5301 44.7569 51.8053 44.4412C51.0804 44.1255 50.4333 43.6536 49.9094 43.0588ZM70.0939 35.1394C70.7132 35.6924 71.1094 36.455 71.2074 37.2824H64.5125C64.8826 35.4768 66.268 34.2817 67.8471 34.2817C68.6751 34.2811 69.4745 34.5863 70.0939 35.1394ZM67.9804 31.8005C64.4394 31.8005 61.6986 34.7666 61.6986 38.3736L61.7029 38.3779C61.7029 42.5218 64.8137 44.9076 68.2945 44.9076C69.9586 44.8943 71.5793 44.3718 72.9414 43.4094L71.8528 41.3267C70.8158 42.028 69.5912 42.395 68.3419 42.3789C66.5132 42.3789 64.9342 41.3527 64.5383 39.3478H73.7847C73.8295 38.9858 73.8539 38.6215 73.8578 38.2567C73.8578 34.7233 71.2375 31.8005 67.9804 31.8005ZM77.0158 40.6122V34.3985H75.213V32.0733H77.0158V29.6095L79.7566 29.0249V32.0559H83.4396V34.3985H79.7566V40.6858C79.7566 42.0324 80.3762 42.4654 81.0474 42.4654C81.6866 42.4361 82.3045 42.2243 82.8286 41.8549L83.6418 43.9636C82.779 44.5683 81.7545 44.8959 80.7032 44.9033C78.2076 44.9033 76.9986 43.509 76.9986 40.6122H77.0158ZM86.2578 34.3985V40.6122H86.2406C86.2406 43.509 87.454 44.9033 89.9495 44.9033C91.0009 44.8959 92.0254 44.5683 92.8882 43.9636L92.075 41.8549C91.5508 42.2243 90.933 42.4361 90.2937 42.4654C89.6225 42.4654 89.0029 42.0324 89.0029 40.6858V34.3985H92.6816V32.0559H89.0029V29.0249L86.2578 29.6095V32.0733H84.4594V34.3985H86.2578ZM103.692 37.2824C103.595 36.4546 103.199 35.6915 102.58 35.1383C101.96 34.585 101.16 34.2802 100.332 34.2817C98.7528 34.2817 97.3673 35.4768 96.9973 37.2824H103.692ZM94.1834 38.3736C94.1834 34.7666 96.9242 31.8179 100.482 31.8179C103.744 31.8179 106.36 34.7407 106.36 38.274C106.356 38.6388 106.332 39.0031 106.287 39.3652H97.0102C97.4061 41.37 98.9851 42.3962 100.814 42.3962C102.063 42.4064 103.287 42.0333 104.32 41.3267L105.413 43.4051C104.052 44.3666 102.433 44.8891 100.771 44.9033C97.2856 44.9033 94.1748 42.5175 94.1748 38.3736H94.1834ZM111.437 32.0733H108.7V44.6478H111.441V39.4994C111.441 36.1739 113.171 34.8749 115.86 34.8749V31.8005C113.244 31.8005 111.91 33.2944 111.437 34.5631V32.0733Z"
      fill="#0C2A5D"
    />
    <path
      d="M34.3521 17.2856C34.3521 12.7147 32.5532 8.32977 29.3488 5.09031C26.1444 1.85086 21.7954 0.0206105 17.2535 0H0V17.2856C0 21.8701 1.80961 26.2667 5.03075 29.5084C8.25188 32.7501 12.6207 34.5712 17.176 34.5712H17.2535C21.7954 34.5506 26.1444 32.7204 29.3488 29.4809C32.5532 26.2415 34.3521 21.8566 34.3521 17.2856Z"
      fill="#FF6970"
    />
    <g opacity="0.8">
      <g opacity="0.8">
        <path
          opacity="0.8"
          d="M41.5504 35.6972C41.5505 31.1208 39.7508 26.7303 36.5446 23.485C33.3384 20.2397 28.9862 18.4033 24.4389 18.377H0V35.6972C0.00282305 37.9687 0.450256 40.2174 1.31674 42.3148C2.18323 44.4122 3.4518 46.3173 5.05 47.9213C6.64819 49.5253 8.54471 50.7967 10.6312 51.6629C12.7177 52.5292 14.9534 52.9733 17.2105 52.9698H17.5504V53.0175H24.9552V52.9872C34.4209 52.9265 41.5504 45.2234 41.5504 35.6972Z"
          fill="#8FE8BC"
        />
      </g>
    </g>
  </g>
  <defs>
    <clipPath id="clip0">
      <rect width="135" height="53.0781" fill="white" />
    </clipPath>
  </defs>
</svg>
